<?xml version="1.0" ?><svg width="32px" height="32px" viewBox="0 0 32 32" xmlns="http://www.w3.org/2000/svg"><g id="a"/><g id="b"><circle cx="21.5" cy="10.5" r="5.5" style="fill:#cfb1fc;"/><path d="M24,9.5c0,.8284-.6716,1.5-1.5,1.5s-1.5-.6716-1.5-1.5,.6716-1.5,1.5-1.5,1.5,.6716,1.5,1.5Zm5,1.5c0,4.4111-3.5889,8-8,8-1.0234,0-2.0171-.1924-2.9629-.5732l-5.4009,4.96c-.2349,.2158-.5571,.3105-.8716,.2441l-.2905-.0576,.0312,.3213c.0298,.3135-.0889,.6221-.3213,.834l-.5796,.5293c-.1587,.1445-.3594,.2344-.5728,.2568l-.5713,.0576-.0459,.4414c-.0254,.2422-.1382,.4678-.3179,.6328l-1.7397,1.5996c-.1875,.1719-.4302,.2637-.6768,.2637-.1104,0-.2217-.0186-.3291-.0557l-1.9502-.6797c-.2871-.0996-.5132-.3252-.6143-.6123l-.7397-2.0996c-.126-.3584-.0381-.7568,.2266-1.0293L13.4346,13.5947c-.2886-.8369-.4346-1.7061-.4346-2.5947,0-4.4111,3.5889-8,8-8s8,3.5889,8,8Zm-2,0c0-3.3086-2.6914-6-6-6s-6,2.6914-6,6c0,.8369,.1733,1.6533,.5151,2.4258,.165,.373,.0869,.8096-.1978,1.1016L5.1396,24.9834l.3735,1.0605,.9307,.3242,1.0205-.9375,.0908-.874c.0488-.4707,.4219-.8438,.8931-.8916l1.0156-.1035-.1094-1.1357c-.0303-.3145,.0903-.625,.3247-.8379,.2349-.2109,.5557-.3037,.8662-.2383l1.1118,.2207,5.5137-5.0625c.3066-.2832,.7563-.3438,1.1274-.1562,.8511,.4307,1.7603,.6484,2.7017,.6484,3.3086,0,6-2.6914,6-6Z" style="fill:#96c;"/></g></svg>