<?xml version="1.0" ?><svg width="32px" height="32px" viewBox="0 0 32 32" xmlns="http://www.w3.org/2000/svg"><g id="a"/><g id="b"><rect height="12" rx="1" ry="1" style="fill:#cfb1fc;" width="24" x="4" y="8"/><path d="M29,5H3c-1.103,0-2,.8975-2,2v14c0,1.1025,.897,2,2,2H15v1.0444c-1.7767,.093-3.5516,.4186-5.3159,1.0074-.5244,.1738-.8076,.7402-.6328,1.2646,.1748,.5234,.7402,.8086,1.2646,.6318,3.7734-1.2559,7.5972-1.2559,11.3677,0,.1055,.0352,.2119,.0518,.3164,.0518,.4189,0,.8086-.2646,.9482-.6836,.1748-.5244-.1084-1.0908-.6318-1.2646-1.7646-.5887-3.5397-.9144-5.3164-1.0074v-1.0444h12c1.1025,0,2-.8975,2-2V7c0-1.1025-.8975-2-2-2ZM3,21V7H29l.002,14H3Zm15.415-3.5771c-.1748,.3516-.5293,.5557-.8975,.5557-.1484,0-.2998-.0332-.4434-.1035l-5.1348-2.5439c-.4951-.2451-.6973-.8457-.4521-1.3408,.2451-.4932,.8462-.6953,1.3398-.4521l5.1357,2.5439c.4941,.2451,.6973,.8457,.4521,1.3408Zm3.4814-2.0693c-.1748,.3525-.5293,.5566-.8975,.5566-.1484,0-.2998-.0332-.4424-.1035l-8.6172-4.2676c-.4951-.2451-.6973-.8457-.4521-1.3398,.2451-.4951,.8462-.6963,1.3398-.4531l8.6162,4.2676c.4951,.2451,.6982,.8457,.4531,1.3398Z" style="fill:#96c;"/></g></svg>